<svg xmlns="http://www.w3.org/2000/svg" viewBox="0 0 834.52 356.98"><defs><style>.cls-1{fill:#2080f0;}</style></defs><path class="cls-1" d="M781.46,212.83c15.95-16,33.69-17.37,46.48-4.17s11.19,29.2-4.58,45.25c-22.6,22.92-45.39,45.84-68.08,68.76a17.57,17.57,0,0,0-2,3.8c25.31,25,51.25,50,76.19,75.87,7.06,7.38,14.12,16.78,12,27.51A34.29,34.29,0,0,1,836.93,441a39.83,39.83,0,0,1-8.76,10.78,24.35,24.35,0,0,1-12.56,5.59,25.47,25.47,0,0,1-14.9-3.35,66.28,66.28,0,0,1-14.53-12.24l-15.45-15.4-30.85-30.9L712.37,368c-3.71-3.67-7.61-7.15-14.16-13.34v65c0,22.92-11.19,36.26-29.8,36-17.74-.32-28.74-13.76-28.74-35.39V136.6c0-22.92,11.14-36.35,29.66-36.08s28.79,13.25,28.83,36.67V296.68C725.94,268.85,753.54,240.7,781.46,212.83Z" transform="translate(-7.37 -100.51)"/><path class="cls-1" d="M226.77,296.68c11.83-65,71.06-109.43,138-105.81,63.53,3.49,117.17,55.52,123.26,119.84a84.32,84.32,0,0,1,.37,9.67c-.23,18.93-11.87,31.86-28.83,32.09-16.09,0-28.29-11.74-29.57-29.75-2.43-34-18.84-58.18-51.11-69.27a73.33,73.33,0,0,0-96.73,69.22c-.64,32.78,0,65.55,0,98.38,0,21.63-11.51,34.84-29.52,34.65s-28.88-13.75-29-35.16C223.38,403.31,222.46,320.47,226.77,296.68Z" transform="translate(-7.37 -100.51)"/><path class="cls-1" d="M590,351.64c-10.13,65.1-72.85,107.55-139.87,103.88-63.3-3.44-117.35-56.25-123-120.11-1.14-13.24-1.65-27.5,11.24-34.65A43.72,43.72,0,0,1,366.73,297c13.48,3.12,17.78,15.22,18.75,28.75,2.7,39.65,32.09,69.4,70,71.28a74.22,74.22,0,0,0,77.45-70.84c0-.84.06-1.67.07-2.51.64-32.77,0-65.55.22-98.33,0-21.41,11.74-34.65,29.76-34.33s28.51,13.15,28.74,33.78C591.86,242.54,594.24,328.08,590,351.64Z" transform="translate(-7.37 -100.51)"/><path class="cls-1" d="M65.87,279.72V420c0,21.87-10.78,35.21-28.47,35.67-18.66.46-30-12.88-30-35.71V136.19c0-22.93,11.33-36.17,30-35.67,17.92.5,28.38,13.48,28.42,35.71Q66,208,65.87,279.72Z" transform="translate(-7.37 -100.51)"/><path class="cls-1" d="M113.73,323.17V224.84c0-20.53,11.18-33.55,28.46-34s30,12.83,30,34.1V421.55c0,20.49-11.27,33.65-28.51,34.11-17.92.5-29.89-12.88-30-34.16Q113.76,372.35,113.73,323.17Z" transform="translate(-7.37 -100.51)"/><path class="cls-1" d="M172.22,138.75a29.16,29.16,0,1,1-29.74-28.55h.77A29.34,29.34,0,0,1,172.22,138.75Z" transform="translate(-7.37 -100.51)"/></svg>